<?xml version="1.0" standalone="no"?>
<!DOCTYPE svg PUBLIC "-//W3C//DTD SVG 20010904//EN"
 "http://www.w3.org/TR/2001/REC-SVG-20010904/DTD/svg10.dtd">
<svg version="1.0" xmlns="http://www.w3.org/2000/svg"
 width="330.000000pt" height="150.000000pt" viewBox="0 0 330.000000 150.000000"
 preserveAspectRatio="xMidYMid meet">

<g transform="translate(0.000000,150.000000) scale(0.100000,-0.100000)"
fill="#000000" stroke="none">
<path d="M250 975 c0 -13 159 -15 1370 -15 1211 0 1370 2 1370 15 0 13 -159
15 -1370 15 -1211 0 -1370 -2 -1370 -15z"/>
<path d="M317 803 c-45 -99 -67 -161 -67 -185 l0 -38 1370 0 c1211 0 1370 2
1370 15 0 13 -133 15 -1135 15 -624 0 -1135 1 -1135 3 0 2 29 67 65 145 71
156 79 192 42 192 -20 0 -31 -16 -78 -125 -30 -68 -58 -123 -63 -122 -6 2 -34
58 -64 125 -48 106 -58 122 -78 122 -38 0 -31 -31 41 -187 36 -78 65 -144 65
-147 0 -3 -13 -6 -30 -6 -24 0 -30 4 -30 20 0 12 -30 88 -67 170 l-68 150 -36
0 -35 0 -67 -147z m130 17 l21 -50 -49 0 -49 0 16 38 c9 20 18 43 21 50 9 22
19 13 40 -38z m74 -167 l18 -43 -120 0 c-66 0 -119 3 -117 8 2 4 10 24 18 45
l14 38 85 -3 84 -3 18 -42z"/>
<path d="M1081 868 c-5 -13 -16 -41 -26 -63 -32 -77 -35 -85 -24 -85 5 0 12 8
16 18 3 9 17 41 30 71 24 56 36 58 48 10 5 -22 2 -28 -17 -34 -22 -8 -21 -8 8
-12 21 -3 35 -12 42 -29 12 -24 39 -35 29 -11 -62 150 -88 183 -106 135z"/>
<path d="M1988 806 c20 -47 41 -86 48 -86 9 0 45 70 81 158 3 6 -1 12 -9 12
-8 0 -24 -28 -38 -65 -13 -36 -27 -65 -31 -65 -4 0 -18 28 -32 63 -14 34 -32
63 -40 65 -12 2 -7 -17 21 -82z"/>
<path d="M2340 805 c0 -50 4 -85 10 -85 6 0 10 35 10 85 0 50 -4 85 -10 85 -6
0 -10 -35 -10 -85z"/>
<path d="M2430 805 c0 -50 4 -85 10 -85 6 0 10 22 10 49 0 42 3 49 22 54 12 4
28 1 36 -5 12 -10 11 -15 -8 -30 -20 -16 -20 -18 -4 -43 9 -14 23 -25 30 -25
12 0 12 4 -2 25 -15 23 -15 26 1 41 28 28 15 49 -33 52 -37 3 -42 6 -42 28 0
13 -4 24 -10 24 -6 0 -10 -35 -10 -85z"/>
<path d="M1422 799 c2 -45 8 -65 20 -73 9 -5 21 -7 25 -2 4 4 0 12 -10 17 -22
13 -24 77 -2 85 14 6 13 8 -2 20 -30 23 -34 16 -31 -47z"/>
<path d="M1250 778 c0 -32 4 -58 10 -58 6 0 10 20 10 45 0 32 5 47 18 53 30
16 42 3 42 -49 0 -28 5 -49 10 -49 7 0 10 22 8 58 l-3 57 -47 1 -48 1 0 -59z"/>
<path d="M1542 828 c-22 -22 -15 -76 13 -94 25 -16 63 -12 77 10 12 17 9 71
-4 84 -16 16 -70 16 -86 0z m66 -10 c7 -7 12 -24 12 -39 0 -32 -32 -48 -55
-29 -27 23 -12 80 20 80 6 0 16 -5 23 -12z"/>
<path d="M1710 778 c0 -32 4 -58 10 -58 6 0 10 22 10 49 0 38 4 50 18 53 33 9
42 -2 42 -53 0 -28 5 -49 10 -49 7 0 10 22 8 58 l-3 57 -47 0 -48 1 0 -58z"/>
<path d="M2172 828 c-7 -7 -12 -29 -12 -50 0 -32 5 -41 26 -50 38 -18 78 7 82
50 2 19 -2 40 -9 48 -14 17 -70 19 -87 2z m68 -12 c26 -32 -7 -87 -44 -73 -19
8 -22 73 -3 80 22 9 34 7 47 -7z"/>
<path d="M2610 829 c0 -6 9 -8 20 -4 20 6 50 -9 50 -26 0 -4 -17 -9 -37 -11
-33 -3 -38 -7 -41 -30 -4 -30 -3 -30 60 -32 l38 -1 0 46 c0 25 -5 50 -12 57
-15 15 -78 16 -78 1z m68 -66 c-2 -11 -14 -19 -31 -21 -22 -3 -27 1 -27 17 0
17 6 21 31 21 24 0 30 -4 27 -17z"/>
<path d="M2770 791 c0 -58 18 -80 54 -63 17 7 27 7 35 -1 8 -8 11 5 11 51 0
35 -4 62 -10 62 -5 0 -10 -20 -10 -44 0 -36 -4 -46 -20 -51 -31 -10 -40 2 -40
51 0 24 -4 44 -10 44 -5 0 -10 -22 -10 -49z"/>
</g>
</svg>
